<svg viewBox="0 0 28 28" xmlns="http://www.w3.org/2000/svg" xmlns:xlink="http://www.w3.org/1999/xlink" width="28.000000" height="28.000000" fill="none" clip-path="url(#clipPath_0)" customFrame="url(#clipPath_0)">
	<defs>
		<clipPath id="clipPath_0">
			<rect width="28.000000" height="28.000000" x="0.000000" y="0.000000" rx="14.000000" fill="rgb(255,255,255)" />
		</clipPath>
	</defs>
	<rect id="关键词提取" width="28.000000" height="28.000000" x="0.000000" y="0.000000" rx="14.000000" fill="rgb(57,194,149)" />
	<g id="组合 761">
		<path id="减去顶层" d="M19.2631 6.57617L7.80582 6.57617C7.11713 6.57617 6.58496 7.06348 6.58496 7.69411L6.58496 20.3927C6.58496 20.9946 7.11713 21.5106 7.80582 21.5106L14.3025 21.5106C14.237 21.5026 14.1746 21.4758 14.1305 21.4303C14.0768 21.361 14.0502 21.292 14.0502 21.2088L14.0502 19.3833L14.6522 19.3833C15.2538 19.3694 15.7352 18.8439 15.7352 18.2216C15.7352 17.599 15.2538 17.0874 14.6522 17.0596L14.0502 17.0596L14.0502 14.8192C14.0502 14.7363 14.0772 14.6531 14.1305 14.598C14.1599 14.5716 14.1929 14.5512 14.2297 14.5369C14.2666 14.5227 14.3047 14.5154 14.3442 14.5152L16.4307 14.5152L16.4307 14.1276C16.4443 13.4776 16.9659 12.9656 17.581 12.9798C18.2097 12.994 18.7043 13.5331 18.6911 14.1696L18.6911 14.5152L20.4527 14.5152L20.4527 7.69411C20.4527 7.06348 19.9205 6.57617 19.2631 6.57617Z" fill="rgb(255,254.745,254.745)" fill-rule="evenodd" />
		<path id="path" d="M22.584 18.5908L22.584 16.7272C22.5839 16.6542 22.5586 16.5897 22.5082 16.5337C22.4811 16.5095 22.45 16.4911 22.415 16.4785C22.38 16.4659 22.3437 16.46 22.3061 16.4609L20.5642 16.4609L20.5642 16.1585C20.5766 15.6015 20.1098 15.1299 19.5164 15.1174C18.9357 15.105 18.4434 15.553 18.4306 16.1217L18.4306 16.4609L16.4612 16.4609C16.4239 16.4611 16.3879 16.4674 16.3531 16.4799C16.3183 16.4924 16.2871 16.5102 16.2594 16.5334C16.2091 16.5816 16.1836 16.6544 16.1836 16.7269L16.1836 18.6873L16.7518 18.6873C17.3197 18.7115 17.7741 19.1592 17.7741 19.704C17.7741 20.2485 17.3197 20.7083 16.7518 20.7205L16.1836 20.7205L16.1836 22.3178C16.1836 22.3906 16.2088 22.4509 16.2594 22.5116C16.3098 22.5598 16.3856 22.5841 16.4612 22.5841L18.3172 22.5841L20.438 22.5844L22.2937 22.5844C22.331 22.5843 22.3671 22.5779 22.4019 22.5654C22.4368 22.5529 22.468 22.5351 22.4958 22.5119C22.5461 22.4634 22.5713 22.3906 22.5713 22.3181L22.5713 20.7208L22.5841 19.3842L22.584 18.5908Z" fill="rgb(255,254.745,254.745)" fill-rule="evenodd" />
		<rect id="矩形 482" width="7.467223" height="1.066746" x="8.716309" y="9.785156" rx="0.533373" fill="rgb(57,194,149)" />
		<rect id="矩形 483" width="4.266985" height="1.066746" x="8.716309" y="11.916016" rx="0.533373" fill="rgb(57,194,149)" />
	</g>
</svg>
