<svg width="28.000000" height="28.000000" viewBox="0 0 28 28" fill="none" xmlns="http://www.w3.org/2000/svg">
	<desc>
			Created with Pixso.
	</desc>
	<defs>
		<clipPath id="clip10488_209423">
			<rect id="转移 (5)" rx="14.000000" width="28.000000" height="28.000000" fill="white" fill-opacity="0"/>
		</clipPath>
	</defs>
	<rect id="转移 (5)" rx="14.000000" width="28.000000" height="28.000000" fill="#39C295" fill-opacity="1.000000"/>
	<g clip-path="url(#clip10488_209423)">
		<path id="减去顶层" d="M19.7134 5L7.32031 5C6.57568 5 6 5.5874 6 6.34717L6 21.6528C6 22.3779 6.57568 23 7.32031 23L14.9995 23C13.7852 22.0879 13 20.6357 13 19C13 16.2388 15.2388 14 18 14C19.1255 14 20.1646 14.3721 21 14.9995L21 6.34717C21 5.5874 20.4243 5 19.7134 5ZM9.75 9.63086C9.8667 9.44922 9.92529 9.20068 9.92529 8.88574L9.92529 8.63867C9.92529 8.38379 9.96924 8.20654 10.0566 8.10742C10.1445 8.0083 10.2915 7.9585 10.4985 7.9585L10.6787 7.9585L10.6787 7L10.271 7C9.93018 7 9.65381 7.03711 9.44141 7.11084C9.33691 7.14697 9.24463 7.19775 9.16504 7.26367L9.16504 7.26367C9.0835 7.33105 9.01514 7.41406 8.95947 7.5127C8.84912 7.70654 8.79395 7.98096 8.79395 8.33496L8.79395 8.72266C8.79395 8.90381 8.77002 9.04492 8.72168 9.14502C8.70801 9.17334 8.69141 9.19922 8.67236 9.22363C8.62451 9.28369 8.56006 9.33105 8.479 9.36475C8.36621 9.41211 8.20703 9.44434 8 9.46143L8 10.5371C8.20215 10.5552 8.35986 10.5864 8.47217 10.6318C8.58545 10.6772 8.66748 10.7495 8.71826 10.8486C8.76855 10.9478 8.79395 11.0903 8.79395 11.2759L8.79395 11.665C8.79395 12.019 8.84912 12.2935 8.95947 12.4873C9.06934 12.6816 9.22998 12.8154 9.44141 12.8892C9.65381 12.9629 9.93018 13 10.271 13L10.6787 13L10.6787 12.04L10.4985 12.04C10.2915 12.04 10.1445 11.9902 10.0566 11.8911C9.96924 11.792 9.92529 11.6147 9.92529 11.3594L9.92529 11.1143C9.92529 10.7993 9.8667 10.5508 9.75 10.3691C9.73438 10.3452 9.71729 10.3218 9.69922 10.2998L9.69922 10.2998C9.58154 10.1558 9.41064 10.0557 9.18701 9.99902C9.44531 9.93506 9.6333 9.81201 9.75 9.63086ZM17.0728 8.63867C17.0728 8.38379 17.0293 8.20654 16.9414 8.10742C16.855 8.0083 16.7075 7.9585 16.5 7.9585L16.3213 7.9585L16.3213 7L16.7275 7C17.0679 7 17.3428 7.03711 17.5518 7.11084C17.7622 7.18359 17.9224 7.31738 18.0322 7.5127C18.1436 7.70654 18.1992 7.98096 18.1992 8.33496L18.1992 8.72266C18.1992 8.90381 18.2231 9.04492 18.2715 9.14502C18.3198 9.24414 18.4014 9.31738 18.5161 9.36475C18.6318 9.41211 18.793 9.44434 19 9.46143L19 10.5371C18.793 10.5552 18.6328 10.5864 18.5195 10.6318C18.4072 10.6772 18.3257 10.7505 18.2749 10.8521C18.2246 10.9531 18.1992 11.0942 18.1992 11.2759L18.1992 11.665C18.1992 12.019 18.1436 12.2935 18.0322 12.4873C17.9224 12.6816 17.7622 12.8154 17.5518 12.8892C17.3428 12.9629 17.0679 13 16.7275 13L16.3213 13L16.3213 12.04L16.5 12.04C16.7075 12.04 16.855 11.9902 16.9414 11.8911C17.0293 11.792 17.0728 11.6147 17.0728 11.3594L17.0728 11.1143C17.0728 10.7993 17.1313 10.5508 17.2485 10.3691C17.3662 10.188 17.5518 10.0645 17.8047 9.99902C17.5518 9.93506 17.3662 9.81201 17.2485 9.63086C17.1313 9.44922 17.0728 9.20068 17.0728 8.88574L17.0728 8.63867ZM14.1797 9.83789L15.9482 7.5376L14.5879 7.5376L13.5308 8.96289L12.4888 7.5376L11.0439 7.5376L12.8125 9.86328L10.9546 12.2803L12.3086 12.2803L13.4551 10.7378L14.5811 12.2803L16.0376 12.2803L14.1797 9.83789Z" clip-rule="evenodd" fill="#FFFFFF" fill-opacity="0.800000" fill-rule="evenodd"/>
		<path id="减去顶层" d="M18 15C15.791 15 14 16.791 14 19C14 21.209 15.791 23 18 23C20.209 23 22 21.209 22 19C22 16.791 20.209 15 18 15ZM18.707 19.7676C18.5088 19.9658 18.5088 20.2769 18.707 20.4746C18.9048 20.6729 19.2158 20.6729 19.4141 20.4746L20.4746 19.4141C20.5234 19.3652 20.5601 19.3115 20.5845 19.2524C20.6089 19.1934 20.6211 19.1294 20.6211 19.0605C20.6211 18.9224 20.5723 18.8047 20.4746 18.707L19.4141 17.6465C19.2158 17.4482 18.9048 17.4482 18.707 17.6465C18.5088 17.8442 18.5088 18.1553 18.707 18.3535L18.8535 18.5L16 18.5L16 18C16 17.7202 15.7798 17.5 15.5 17.5C15.2197 17.5 15 17.7202 15 18L15 19C15 19.0693 15.0122 19.1333 15.0366 19.1919C15.061 19.251 15.0977 19.3047 15.1465 19.3535C15.1953 19.4023 15.249 19.439 15.3081 19.4634C15.3667 19.4878 15.4312 19.5 15.5 19.5L18.9746 19.5L18.707 19.7676Z" clip-rule="evenodd" fill="#FFFFFF" fill-opacity="1.000000" fill-rule="evenodd"/>
	</g>
</svg>
