<svg width="16.000000" height="16.000000" viewBox="0 0 16 16" fill="none" xmlns="http://www.w3.org/2000/svg">
	<desc>
			Created with Pixso.
	</desc>
	<defs/>
	<rect id="ICON/16/Delect" width="16.000000" height="16.000000" fill="#FFFFFF" fill-opacity="0"/>
	<rect id="矩形" width="16.000000" height="16.000000" fill="#D8D8D8" fill-opacity="0"/>
	<rect id="矩形" x="0.500000" y="0.500000" width="15.000000" height="15.000000" stroke="#979797" stroke-opacity="0" stroke-width="1.000000"/>
	<path id="ICON" d="M10.6309 1.35742C10.415 1.13428 10.1191 1.00586 9.80859 1.00049L6.13867 1.00049C5.8291 1.00586 5.5332 1.13428 5.31738 1.35742C5.10156 1.58057 4.9834 1.88037 4.98926 2.19043L4.98926 2.98047L1.60938 2.98047C1.20898 2.98047 0.999023 3.15039 0.999023 3.48047L0.999023 3.60059C1.03906 3.87061 1.23926 4.00049 1.59863 4.00049L2.98926 4.00049L2.98926 11.9907C2.98926 12.5312 3.20801 13.0493 3.5957 13.4263C3.98438 13.8032 4.50781 14.0068 5.04883 13.9907L10.9287 13.9907C11.4697 14.0068 11.9941 13.8032 12.3818 13.4263C12.7705 13.0493 12.9893 12.5312 12.9893 11.9907L12.9893 3.99072L14.3389 3.99072C14.749 3.99072 14.9492 3.83057 14.9492 3.50049L14.9492 3.40039C14.9189 3.14062 14.7188 3.00049 14.3486 3.00049L10.959 3.00049L10.959 2.19043C10.9648 1.88037 10.8467 1.58057 10.6309 1.35742ZM5.95996 2.00049L9.95996 2.00049L9.95996 3.00049L5.95996 3.00049L5.95996 2.00049ZM11.9893 3.99951L3.95898 3.99951L3.95898 11.9995C3.95898 12.5518 4.40723 12.9995 4.95898 12.9995L10.959 12.9995C11.2295 13.0078 11.4912 12.9058 11.6855 12.7178C11.8799 12.5293 11.9893 12.27 11.9893 11.9995L11.9893 3.99951ZM6.48047 6.00049C6.60449 6.00293 6.72363 6.05273 6.81348 6.14062C6.90723 6.23242 6.95996 6.35889 6.95996 6.49072L6.95996 10.4907C6.95996 10.6221 6.90723 10.7485 6.81348 10.8403C6.71973 10.9326 6.5918 10.9834 6.45996 10.9805C6.18848 10.9805 5.96582 10.7627 5.95996 10.4907L5.95996 6.49072C5.96289 6.35449 6.02051 6.2251 6.12109 6.13232C6.2207 6.04004 6.35449 5.99219 6.49023 6.00049L6.48047 6.00049ZM6.48047 6.00049L6.45996 6.00049C6.4668 6.00049 6.47363 6.00049 6.48047 6.00049ZM9.81348 6.14062C9.72363 6.05273 9.60449 6.00293 9.48047 6.00049L9.49023 6.00049C9.35449 5.99219 9.2207 6.04004 9.12109 6.13232C9.02051 6.2251 8.96289 6.35449 8.95996 6.49072L8.95996 10.4907C8.96582 10.7627 9.18848 10.9805 9.45996 10.9805C9.5918 10.9834 9.71973 10.9326 9.81348 10.8403C9.90723 10.7485 9.95996 10.6221 9.95996 10.4907L9.95996 6.49072C9.95996 6.35889 9.90723 6.23242 9.81348 6.14062ZM9.48047 6.00049C9.47363 6.00049 9.4668 6.00049 9.45996 6.00049L9.48047 6.00049Z" clip-rule="evenodd" fill="#4D4D4D" fill-opacity="1.000000" fill-rule="evenodd"/>
</svg>
