<svg xmlns="http://www.w3.org/2000/svg" xmlns:xlink="http://www.w3.org/1999/xlink" contentStyleType="text/css" height="138px" preserveAspectRatio="none" style="width:1083px;height:138px;background:#EEEBDC;" version="1.1" viewBox="0 0 1083 138" width="1083px" zoomAndPan="magnify"><defs/><g><rect fill="#EEEBDC" height="138" style="stroke:none;stroke-width:1.0;" width="1083" x="0" y="0"/><!--cluster ????--><g id="cluster_&#22806;&#37096;&#37197;&#32622;"><path d="M102,6.1641 L144,6.1641 A15,15 0 0 1 154,16.1641 L161,30.6416 L561,30.6416 A10,10 0 0 1 571,40.6416 L571,117.1641 A10,10 0 0 1 561,127.1641 L102,127.1641 A10,10 0 0 1 92,117.1641 L92,16.1641 A10,10 0 0 1 102,6.1641 " fill="none" style="stroke:#000000;stroke-width:1.5;"/><line style="stroke:#000000;stroke-width:1.5;" x1="92" x2="161" y1="30.6416" y2="30.6416"/><text fill="#000000" font-family="sans-serif" font-size="14" font-weight="bold" lengthAdjust="spacing" textLength="56" x="96" y="22.9775">&#22806;&#37096;&#37197;&#32622;</text></g><!--cluster ????--><g id="cluster_&#20869;&#37096;&#37197;&#32622;"><path d="M609,6.1641 L651,6.1641 A15,15 0 0 1 661,16.1641 L668,30.6416 L1062,30.6416 A10,10 0 0 1 1072,40.6416 L1072,117.1641 A10,10 0 0 1 1062,127.1641 L609,127.1641 A10,10 0 0 1 599,117.1641 L599,16.1641 A10,10 0 0 1 609,6.1641 " fill="none" style="stroke:#000000;stroke-width:1.5;"/><line style="stroke:#000000;stroke-width:1.5;" x1="599" x2="668" y1="30.6416" y2="30.6416"/><text fill="#000000" font-family="sans-serif" font-size="14" font-weight="bold" lengthAdjust="spacing" textLength="56" x="603" y="22.9775">&#20869;&#37096;&#37197;&#32622;</text></g><!--entity StartupArguments--><g id="elem_StartupArguments"><rect fill="#EDBFCA" height="66.9551" rx="10" ry="10" style="stroke:#181818;stroke-width:0.5;" width="108.9473" x="108" y="43.6641"/><rect fill="#EDBFCA" height="10" style="stroke:#181818;stroke-width:0.5;" width="15" x="196.9473" y="48.6641"/><rect fill="#EDBFCA" height="2" style="stroke:#181818;stroke-width:0.5;" width="4" x="194.9473" y="50.6641"/><rect fill="#EDBFCA" height="2" style="stroke:#181818;stroke-width:0.5;" width="4" x="194.9473" y="54.6641"/><text fill="#000000" font-family="sans-serif" font-size="14" font-style="italic" lengthAdjust="spacing" textLength="68.9473" x="123" y="78.4775">&#171;External&#187;</text><text fill="#000000" font-family="sans-serif" font-size="14" lengthAdjust="spacing" textLength="56" x="129.4736" y="96.9551">&#21551;&#21160;&#21442;&#25968;</text></g><!--entity EnvironmentVariable--><g id="elem_EnvironmentVariable"><rect fill="#EDBFCA" height="66.9551" rx="10" ry="10" style="stroke:#181818;stroke-width:0.5;" width="108.9473" x="277" y="43.6641"/><rect fill="#EDBFCA" height="10" style="stroke:#181818;stroke-width:0.5;" width="15" x="365.9473" y="48.6641"/><rect fill="#EDBFCA" height="2" style="stroke:#181818;stroke-width:0.5;" width="4" x="363.9473" y="50.6641"/><rect fill="#EDBFCA" height="2" style="stroke:#181818;stroke-width:0.5;" width="4" x="363.9473" y="54.6641"/><text fill="#000000" font-family="sans-serif" font-size="14" font-style="italic" lengthAdjust="spacing" textLength="68.9473" x="292" y="78.4775">&#171;External&#187;</text><text fill="#000000" font-family="sans-serif" font-size="14" lengthAdjust="spacing" textLength="56" x="298.4736" y="96.9551">&#29615;&#22659;&#21464;&#37327;</text></g><!--entity StartUpConfig--><g id="elem_StartUpConfig"><rect fill="#EDBFCA" height="66.9551" rx="10" ry="10" style="stroke:#181818;stroke-width:0.5;" width="108.9473" x="446" y="43.6641"/><rect fill="#EDBFCA" height="10" style="stroke:#181818;stroke-width:0.5;" width="15" x="534.9473" y="48.6641"/><rect fill="#EDBFCA" height="2" style="stroke:#181818;stroke-width:0.5;" width="4" x="532.9473" y="50.6641"/><rect fill="#EDBFCA" height="2" style="stroke:#181818;stroke-width:0.5;" width="4" x="532.9473" y="54.6641"/><text fill="#000000" font-family="sans-serif" font-size="14" font-style="italic" lengthAdjust="spacing" textLength="68.9473" x="461" y="78.4775">&#171;External&#187;</text><text fill="#000000" font-family="sans-serif" font-size="14" lengthAdjust="spacing" textLength="56" x="467.4736" y="96.9551">&#21551;&#21160;&#37197;&#32622;</text></g><!--entity ApplicationConfig--><g id="elem_ApplicationConfig"><rect fill="#BFEDCA" height="66.9551" rx="10" ry="10" style="stroke:#181818;stroke-width:0.5;" width="106.8965" x="615" y="43.6641"/><rect fill="#BFEDCA" height="10" style="stroke:#181818;stroke-width:0.5;" width="15" x="701.8965" y="48.6641"/><rect fill="#BFEDCA" height="2" style="stroke:#181818;stroke-width:0.5;" width="4" x="699.8965" y="50.6641"/><rect fill="#BFEDCA" height="2" style="stroke:#181818;stroke-width:0.5;" width="4" x="699.8965" y="54.6641"/><text fill="#000000" font-family="sans-serif" font-size="14" font-style="italic" lengthAdjust="spacing" textLength="66.8965" x="630" y="78.4775">&#171;Internal&#187;</text><text fill="#000000" font-family="sans-serif" font-size="14" lengthAdjust="spacing" textLength="56" x="635.4482" y="96.9551">&#24212;&#29992;&#37197;&#32622;</text></g><!--entity PluginApplicationConfig--><g id="elem_PluginApplicationConfig"><rect fill="#BFEDCA" height="66.9551" rx="10" ry="10" style="stroke:#181818;stroke-width:0.5;" width="106.8965" x="782" y="43.6641"/><rect fill="#BFEDCA" height="10" style="stroke:#181818;stroke-width:0.5;" width="15" x="868.8965" y="48.6641"/><rect fill="#BFEDCA" height="2" style="stroke:#181818;stroke-width:0.5;" width="4" x="866.8965" y="50.6641"/><rect fill="#BFEDCA" height="2" style="stroke:#181818;stroke-width:0.5;" width="4" x="866.8965" y="54.6641"/><text fill="#000000" font-family="sans-serif" font-size="14" font-style="italic" lengthAdjust="spacing" textLength="66.8965" x="797" y="78.4775">&#171;Internal&#187;</text><text fill="#000000" font-family="sans-serif" font-size="14" lengthAdjust="spacing" textLength="56" x="802.4482" y="96.9551">&#25554;&#20214;&#37197;&#32622;</text></g><!--entity AssignedDefaultValue--><g id="elem_AssignedDefaultValue"><rect fill="#BFEDCA" height="66.9551" rx="10" ry="10" style="stroke:#181818;stroke-width:0.5;" width="106.8965" x="949" y="43.6641"/><rect fill="#BFEDCA" height="10" style="stroke:#181818;stroke-width:0.5;" width="15" x="1035.8965" y="48.6641"/><rect fill="#BFEDCA" height="2" style="stroke:#181818;stroke-width:0.5;" width="4" x="1033.8965" y="50.6641"/><rect fill="#BFEDCA" height="2" style="stroke:#181818;stroke-width:0.5;" width="4" x="1033.8965" y="54.6641"/><text fill="#000000" font-family="sans-serif" font-size="14" font-style="italic" lengthAdjust="spacing" textLength="66.8965" x="964" y="78.4775">&#171;Internal&#187;</text><text fill="#000000" font-family="sans-serif" font-size="14" lengthAdjust="spacing" textLength="56" x="969.4482" y="96.9551">&#40664;&#35748;&#37197;&#32622;</text></g><!--entity Client--><g id="elem_Client"><ellipse cx="27" cy="46.6641" fill="#F1F1F1" rx="8" ry="8" style="stroke:#181818;stroke-width:0.5;"/><path d="M27,54.6641 L27,81.6641 M14,62.6641 L40,62.6641 M27,81.6641 L14,96.6641 M27,81.6641 L40,96.6641 " fill="none" style="stroke:#181818;stroke-width:0.5;"/><text fill="#000000" font-family="sans-serif" font-size="14" lengthAdjust="spacing" textLength="42" x="6" y="112.9775">&#35843;&#29992;&#26041;</text></g><!--link Client to StartupArguments--><g id="link_Client_StartupArguments"><path d="M48.28,77.1641 C64.1,77.1641 80.85,77.1641 101.82,77.1641 " fill="none" id="Client-to-StartupArguments" style="stroke:#181818;stroke-width:2.0;"/><polygon fill="#181818" points="107.82,77.1641,98.82,73.1641,102.82,77.1641,98.82,81.1641,107.82,77.1641" style="stroke:#181818;stroke-width:2.0;"/></g><!--link StartupArguments to EnvironmentVariable--><g id="link_StartupArguments_EnvironmentVariable"><path d="M217.26,77.1641 C236.33,77.1641 251.78,77.1641 270.84,77.1641 " fill="none" id="StartupArguments-to-EnvironmentVariable" style="stroke:#181818;stroke-width:2.0;"/><polygon fill="#181818" points="276.84,77.1641,267.84,73.1641,271.84,77.1641,267.84,81.1641,276.84,77.1641" style="stroke:#181818;stroke-width:2.0;"/></g><!--link EnvironmentVariable to StartUpConfig--><g id="link_EnvironmentVariable_StartUpConfig"><path d="M386.26,77.1641 C405.33,77.1641 420.78,77.1641 439.84,77.1641 " fill="none" id="EnvironmentVariable-to-StartUpConfig" style="stroke:#181818;stroke-width:2.0;"/><polygon fill="#181818" points="445.84,77.1641,436.84,73.1641,440.84,77.1641,436.84,81.1641,445.84,77.1641" style="stroke:#181818;stroke-width:2.0;"/></g><!--link StartUpConfig to ApplicationConfig--><g id="link_StartUpConfig_ApplicationConfig"><path d="M555.4,77.1641 C574.42,77.1641 589.79,77.1641 608.72,77.1641 " fill="none" id="StartUpConfig-to-ApplicationConfig" style="stroke:#181818;stroke-width:2.0;"/><polygon fill="#181818" points="614.72,77.1641,605.72,73.1641,609.72,77.1641,605.72,81.1641,614.72,77.1641" style="stroke:#181818;stroke-width:2.0;"/></g><!--link ApplicationConfig to PluginApplicationConfig--><g id="link_ApplicationConfig_PluginApplicationConfig"><path d="M722.16,77.1641 C741.21,77.1641 756.72,77.1641 775.77,77.1641 " fill="none" id="ApplicationConfig-to-PluginApplicationConfig" style="stroke:#181818;stroke-width:2.0;"/><polygon fill="#181818" points="781.77,77.1641,772.77,73.1641,776.77,77.1641,772.77,81.1641,781.77,77.1641" style="stroke:#181818;stroke-width:2.0;"/></g><!--link PluginApplicationConfig to AssignedDefaultValue--><g id="link_PluginApplicationConfig_AssignedDefaultValue"><path d="M889.16,77.1641 C908.21,77.1641 923.72,77.1641 942.77,77.1641 " fill="none" id="PluginApplicationConfig-to-AssignedDefaultValue" style="stroke:#181818;stroke-width:2.0;"/><polygon fill="#181818" points="948.77,77.1641,939.77,73.1641,943.77,77.1641,939.77,81.1641,948.77,77.1641" style="stroke:#181818;stroke-width:2.0;"/></g><!--SRC=[VL5DImCn5BpdLuHw5iHpAMntj-1513ykuY7Tlcv3iycQPFr0l5XK4BGYjVGi7dgoFGbQ_3TkQ_-5QIjswtOzPjxCl3UJ6gq0XY3KfpY0e0nI8QJgb8T4aW2NYLVtfOXunHPCIBpYkcxHiHECwT0JaeF4wsk9WOB32BW7bfJYUAT6lJe7fV1wWc8pebH9SBr90i2su4eO9BdV4q4eE72Dpr1nyPPylaGP50fufLYoBTT9ppUu1ia9ct5SnxRI7FTapd6TYHCwHuX1LMCjiAH-JUCAbU1fAZX2nDEcXTnNlp5gTOVjjnmcoiIWvaA4GcDEVC3nStlSw8ulRqSVB-RkUORz-BuNttJZviNmiN-05xORdsrDf8v2I_fHOEWggHpTzUAdHjpiZA-RQQNBZwWKVABQ8vAICeFqsjb16MjtGrD_bVgJzByvhYwpShotJFwvOQ9fOsY58QCUcJJsOvgG3fiFduFNBEaMYtpA_pKO3pfVBy-PkvMYFeUA0rKICTC6Yy1acdqHNbqjf5l-2qnPonfTWiqTVmjSU4tdwJWfPChB2f-1pxoNvFq6]--></g></svg>